<?xml version="1.0" standalone="no"?>
<!DOCTYPE svg PUBLIC "-//W3C//DTD SVG 20010904//EN"
 "http://www.w3.org/TR/2001/REC-SVG-20010904/DTD/svg10.dtd">
<svg version="1.0" xmlns="http://www.w3.org/2000/svg"
 width="1080.000000pt" height="1080.000000pt" viewBox="0 0 1080.000000 1080.000000"
 preserveAspectRatio="xMidYMid meet">
<metadata>
Created by potrace 1.11, written by Peter Selinger 2001-2013
</metadata>
<g transform="translate(0.000000,1080.000000) scale(0.100000,-0.100000)"
fill="#000000" stroke="none">
<path d="M0 5400 l0 -5400 5400 0 5400 0 0 5400 0 5400 -5400 0 -5400 0 0
-5400z m5860 5322 c233 -26 468 -64 695 -113 235 -50 673 -193 890 -289 22 -9
69 -30 105 -46 93 -40 396 -195 475 -243 37 -23 69 -41 71 -41 3 0 84 -52 180
-115 178 -117 336 -233 464 -341 14 -12 61 -52 105 -89 246 -206 618 -613 815
-891 59 -84 170 -246 170 -250 0 -1 17 -31 39 -66 227 -372 405 -754 531
-1143 48 -149 45 -138 99 -347 190 -740 210 -1549 56 -2313 -65 -320 -194
-741 -302 -986 -138 -309 -180 -394 -281 -569 -30 -52 -66 -114 -79 -138 -33
-59 -170 -269 -203 -312 -15 -19 -66 -87 -114 -151 -47 -63 -94 -124 -104
-135 -9 -10 -57 -66 -107 -124 -91 -106 -303 -323 -430 -441 -187 -174 -595
-479 -775 -581 -25 -13 -85 -49 -135 -78 -150 -89 -436 -231 -600 -297 -33
-14 -73 -31 -90 -38 -275 -119 -787 -258 -1135 -309 -309 -45 -339 -48 -705
-53 -504 -7 -733 13 -1180 102 -635 127 -1333 420 -1865 783 -325 221 -524
384 -769 625 -627 620 -1067 1341 -1338 2192 -68 214 -116 411 -152 617 -68
391 -84 597 -78 998 5 326 11 432 42 670 39 306 156 784 260 1060 20 52 19 51
80 195 26 61 62 147 81 191 35 87 93 207 139 289 15 28 43 79 63 115 56 104
207 348 236 382 8 9 23 29 32 45 26 40 226 301 310 402 138 166 440 468 623
621 170 143 445 339 626 447 212 127 500 281 585 314 25 9 115 46 202 82 133
56 486 177 514 177 5 0 45 12 89 26 86 28 88 29 270 68 179 38 332 63 500 81
83 9 175 20 205 24 79 12 766 6 890 -7z"/>
<path d="M5125 10329 c-351 -22 -664 -71 -980 -154 -184 -48 -445 -132 -462
-148 -3 -4 -12 -7 -20 -7 -17 0 -162 -57 -268 -105 -224 -102 -443 -219 -610
-327 -33 -21 -67 -43 -75 -48 -145 -91 -338 -240 -550 -421 -175 -150 -454
-436 -556 -569 -67 -87 -75 -98 -105 -134 -75 -91 -283 -414 -378 -586 -128
-233 -331 -682 -331 -732 0 -7 -9 -37 -20 -67 -46 -119 -128 -417 -158 -571
-6 -30 -15 -79 -21 -108 -20 -100 -16 -106 54 -72 22 11 43 19 46 20 4 0 72
32 153 70 80 39 148 70 151 70 3 0 55 24 117 54 151 73 370 176 483 226 120
54 349 162 450 213 61 30 133 65 160 77 28 12 102 47 165 77 63 30 162 75 220
100 58 24 132 59 165 77 33 18 89 44 125 58 36 15 119 52 185 83 135 62 111
61 320 20 66 -13 183 -35 260 -49 77 -15 172 -33 210 -41 39 -8 108 -21 155
-29 47 -8 135 -24 195 -36 255 -49 271 -55 298 -112 8 -18 45 -98 82 -178 37
-80 94 -201 126 -268 32 -68 59 -126 59 -128 0 -4 52 -113 181 -380 32 -66 67
-143 78 -170 10 -27 56 -124 100 -216 45 -93 81 -170 81 -172 0 -5 96 -207
186 -393 41 -84 74 -154 74 -156 0 -4 57 -126 171 -365 27 -56 49 -104 49
-106 0 -2 33 -73 74 -157 40 -85 108 -228 151 -319 43 -91 119 -253 170 -360
144 -302 175 -371 175 -386 0 -7 -8 -28 -19 -46 -145 -255 -185 -326 -226
-403 -62 -116 -73 -136 -228 -415 -71 -129 -139 -246 -151 -259 -16 -18 -312
-171 -330 -171 -2 0 -59 -26 -127 -59 -68 -32 -151 -71 -184 -86 -57 -26 -113
-52 -265 -123 -36 -16 -110 -51 -165 -77 -55 -26 -134 -63 -175 -82 -41 -19
-124 -59 -185 -88 -60 -29 -130 -62 -155 -73 -49 -22 -123 -56 -388 -181 -95
-44 -175 -81 -177 -81 -16 0 -255 -122 -255 -130 0 -26 353 -174 645 -270 174
-58 167 -56 330 -94 293 -70 261 -63 540 -106 473 -72 1133 -50 1615 54 153
33 289 65 320 75 14 5 45 14 70 21 303 86 688 245 965 398 39 22 97 54 130 72
127 71 429 271 455 301 3 3 39 31 80 61 130 97 323 268 470 417 228 231 419
463 579 704 140 211 269 437 353 622 26 55 62 134 81 175 100 217 272 759 248
783 -5 5 -65 -17 -157 -61 -82 -38 -279 -131 -439 -205 -159 -74 -335 -156
-390 -182 -55 -26 -229 -107 -387 -181 -297 -138 -343 -160 -618 -290 -209
-99 -171 -98 -565 -19 -105 21 -389 75 -555 106 -30 6 -73 15 -95 19 -22 5
-83 17 -135 26 -52 9 -105 23 -118 31 -13 8 -40 51 -62 96 -21 45 -63 135 -94
200 -31 65 -56 120 -56 122 0 1 -45 97 -101 211 -56 115 -118 247 -139 294
-20 47 -78 171 -128 275 -49 105 -101 215 -115 245 -13 30 -54 116 -90 190
-36 74 -82 173 -103 220 -20 47 -81 176 -135 287 -53 111 -101 213 -105 225
-3 13 -15 35 -25 50 -11 14 -19 31 -19 36 0 6 -14 37 -30 69 -17 32 -52 105
-77 163 -26 58 -75 161 -108 230 -34 69 -81 168 -105 220 -23 52 -72 156 -108
230 -35 74 -82 173 -104 220 -22 47 -51 108 -64 136 -32 68 -30 101 9 172 103
188 186 338 232 417 29 50 72 126 95 170 24 44 69 125 100 180 31 55 76 136
100 180 23 44 47 86 53 94 11 13 322 167 412 203 28 11 136 62 240 113 305
149 411 195 451 195 20 0 71 -6 113 -14 124 -24 314 -58 346 -63 17 -3 50 -8
75 -13 24 -5 48 -6 52 -4 5 3 8 86 8 184 0 172 1 180 23 203 12 13 85 53 162
89 77 37 203 96 280 132 184 86 208 99 208 111 0 6 -27 25 -59 43 -113 63
-520 260 -589 285 -38 14 -108 40 -155 57 -166 61 -436 141 -575 169 -311 64
-399 79 -600 100 -126 13 -471 32 -550 30 -33 -1 -118 -6 -190 -10z"/>
<path d="M8440 9224 c0 -10 5 -31 10 -48 12 -36 105 -366 126 -446 8 -30 18
-64 23 -75 5 -11 26 -83 46 -160 21 -77 54 -194 75 -260 109 -350 136 -460
119 -481 -10 -12 -369 -194 -383 -194 -6 0 -274 -125 -436 -202 -180 -86 -276
-128 -294 -128 -21 0 -35 23 -109 185 -35 77 -89 192 -119 255 -31 63 -70 148
-88 188 -18 39 -38 76 -44 81 -12 10 -13 10 -326 -143 -97 -47 -179 -86 -183
-86 -4 0 -41 -16 -83 -35 -41 -19 -77 -35 -79 -35 -2 0 -64 -29 -137 -64 -73
-35 -153 -72 -178 -83 -178 -78 -271 -128 -254 -135 11 -4 82 -19 159 -33 196
-36 232 -45 245 -60 12 -15 150 -292 150 -302 0 -4 43 -94 95 -200 52 -106 95
-196 95 -199 0 -3 15 -38 34 -77 19 -40 65 -139 104 -222 39 -82 91 -195 117
-250 26 -55 76 -163 112 -239 35 -77 85 -180 110 -230 25 -50 80 -168 122
-261 119 -263 170 -328 310 -393 65 -30 90 -36 168 -40 111 -6 155 4 288 65
126 57 439 205 444 210 7 6 -17 65 -81 201 -201 427 -219 466 -214 479 6 13
128 77 283 147 54 24 141 64 193 89 52 25 129 61 170 80 41 19 118 55 170 80
276 130 386 178 404 175 16 -2 44 -49 122 -208 56 -113 113 -232 127 -265 14
-33 70 -154 125 -270 54 -115 127 -268 161 -340 74 -158 74 -157 86 -156 21 2
26 64 27 316 4 634 -104 1198 -343 1798 -32 81 -69 171 -82 200 -13 29 -37 81
-53 117 -16 36 -55 115 -87 175 -180 336 -417 681 -627 910 -25 27 -78 85
-119 130 -131 143 -425 415 -478 444 -20 10 -23 9 -23 -5z"/>
<path d="M2990 5906 c-61 -22 -105 -42 -375 -171 -154 -74 -326 -154 -417
-195 -43 -19 -77 -38 -78 -42 0 -3 19 -9 43 -13 23 -4 67 -13 97 -20 30 -7 99
-21 153 -31 76 -13 103 -23 122 -42 14 -14 25 -28 25 -32 0 -5 25 -61 56 -126
70 -148 119 -253 151 -324 14 -30 58 -124 99 -208 41 -84 74 -155 74 -157 0
-3 21 -49 161 -343 33 -68 59 -126 59 -128 0 -2 25 -55 56 -117 31 -61 75
-155 99 -207 24 -52 63 -138 88 -190 129 -276 206 -439 265 -565 35 -77 71
-146 78 -154 11 -12 27 -8 111 32 54 25 136 63 183 85 47 22 133 63 192 90
207 97 308 241 308 440 0 98 -16 151 -92 310 -59 124 -97 205 -153 327 -15 33
-67 143 -115 245 -48 102 -109 232 -136 290 -26 58 -71 150 -100 205 -28 55
-55 111 -59 125 -8 29 -103 234 -220 475 -45 94 -89 186 -99 205 -48 103 -154
196 -266 234 -33 11 -92 20 -150 22 -80 3 -105 0 -160 -20z"/>
<path d="M547 5003 c-16 -15 4 -183 54 -448 47 -250 172 -683 229 -795 10 -19
24 -51 30 -70 57 -163 198 -459 314 -657 325 -559 760 -1047 1281 -1437 116
-87 285 -203 310 -212 37 -15 14 41 -226 545 -32 68 -59 125 -59 126 0 2 -30
65 -66 141 -36 77 -81 171 -99 209 -18 39 -94 203 -170 365 -75 162 -175 373
-221 468 -46 95 -84 175 -84 178 0 3 -33 74 -73 157 -88 181 -161 338 -297
632 -15 33 -55 116 -87 185 -33 69 -68 143 -78 165 -126 275 -154 325 -187
339 -35 15 -51 19 -318 70 -243 47 -246 47 -253 39z"/>
</g>
</svg>
