<?xml version="1.0" standalone="no"?>
<!DOCTYPE svg PUBLIC "-//W3C//DTD SVG 20010904//EN"
 "http://www.w3.org/TR/2001/REC-SVG-20010904/DTD/svg10.dtd">
<svg version="1.0" xmlns="http://www.w3.org/2000/svg"
 width="1080.000000pt" height="1080.000000pt" viewBox="0 0 1080.000000 1080.000000"
 preserveAspectRatio="xMidYMid meet">
<metadata>
Created by potrace 1.11, written by Peter Selinger 2001-2013
</metadata>
<g transform="translate(0.000000,1080.000000) scale(0.100000,-0.100000)"
fill="#000000" stroke="none">
<path d="M0 5400 l0 -5400 5400 0 5400 0 0 5400 0 5400 -5400 0 -5400 0 0
-5400z m5744 5330 c33 -5 115 -14 181 -20 381 -37 788 -127 1170 -260 66 -23
139 -48 163 -56 172 -60 580 -255 791 -378 145 -85 406 -258 491 -325 166
-132 253 -202 345 -282 106 -92 336 -323 447 -450 78 -88 272 -328 308 -380
122 -177 235 -350 280 -429 152 -269 176 -315 277 -539 35 -80 71 -161 80
-179 52 -116 165 -465 217 -672 64 -253 96 -429 138 -760 18 -144 18 -894 0
-1040 -47 -383 -102 -673 -172 -905 -5 -16 -21 -70 -35 -120 -55 -185 -107
-326 -203 -550 -60 -140 -172 -364 -252 -505 -94 -167 -291 -473 -352 -547
-18 -23 -62 -79 -98 -124 -208 -268 -550 -615 -794 -806 -22 -18 -81 -64 -131
-103 -118 -92 -397 -278 -561 -372 -156 -91 -411 -220 -549 -277 -55 -23 -115
-49 -132 -57 -38 -17 -315 -118 -370 -134 -37 -11 -65 -19 -135 -39 -301 -85
-535 -131 -933 -183 -139 -18 -867 -18 -1030 0 -306 35 -591 86 -825 148 -342
92 -533 161 -906 327 -268 120 -568 297 -874 516 -867 619 -1558 1559 -1895
2576 -66 200 -88 273 -126 421 -57 225 -93 452 -140 874 -13 124 -7 670 10
860 15 163 39 355 51 405 5 22 16 78 25 125 72 377 194 771 332 1070 14 30 41
93 60 140 32 80 79 172 179 354 24 43 44 80 44 82 0 11 244 377 296 444 23 30
87 112 141 181 188 242 494 557 747 768 140 117 565 421 589 421 3 0 34 18 69
39 165 100 454 250 578 300 41 16 125 51 185 76 61 26 128 52 150 60 53 18
311 97 405 125 41 12 86 25 100 30 91 32 485 102 703 125 84 9 177 20 207 24
79 12 681 13 754 1z"/>
<path d="M5100 10329 c-258 -19 -466 -46 -680 -89 -283 -58 -506 -121 -760
-217 -52 -20 -117 -44 -143 -54 -110 -41 -461 -212 -542 -264 -27 -18 -70 -43
-95 -56 -102 -54 -374 -244 -544 -379 -181 -143 -450 -397 -609 -573 -153
-169 -357 -449 -513 -702 -128 -209 -359 -686 -409 -845 -10 -30 -30 -93 -45
-140 -15 -47 -40 -125 -55 -175 -14 -49 -30 -101 -35 -115 -10 -28 -41 -165
-58 -250 -6 -30 -15 -79 -21 -108 -15 -72 -14 -102 3 -102 16 0 80 27 201 85
50 23 113 53 140 65 28 12 100 46 160 75 61 29 135 64 165 78 30 14 98 45 150
69 52 25 147 69 210 98 160 73 302 141 455 215 266 129 471 225 482 225 3 0
76 33 162 74 450 214 469 220 574 196 23 -5 105 -21 182 -35 77 -14 172 -32
210 -40 102 -20 312 -59 535 -100 107 -20 210 -43 228 -51 26 -11 39 -29 64
-81 17 -38 51 -111 75 -163 122 -259 194 -413 229 -490 21 -47 45 -96 54 -110
9 -14 25 -47 35 -75 10 -27 30 -70 44 -95 15 -25 42 -81 60 -125 19 -44 63
-140 98 -213 35 -73 63 -134 63 -136 0 -2 34 -74 75 -160 41 -86 75 -158 75
-161 0 -2 33 -73 74 -157 108 -223 186 -388 186 -394 0 -2 27 -60 59 -127 110
-228 171 -357 171 -361 0 -2 39 -85 86 -183 48 -98 103 -214 124 -258 21 -44
59 -125 85 -180 129 -271 155 -328 155 -339 0 -6 -55 -109 -122 -228 -68 -120
-168 -299 -223 -400 -55 -100 -115 -209 -133 -242 -19 -34 -52 -95 -74 -136
-78 -143 -58 -128 -343 -260 -33 -15 -96 -44 -140 -65 -44 -21 -141 -66 -215
-100 -74 -34 -286 -133 -470 -220 -184 -86 -438 -206 -565 -265 -126 -59 -279
-131 -338 -159 -60 -28 -110 -51 -113 -51 -5 0 -226 -103 -264 -123 -60 -31
-18 -57 305 -186 245 -97 433 -158 630 -205 83 -20 179 -43 215 -51 311 -74
849 -117 1195 -96 335 20 557 49 820 107 506 112 953 286 1410 549 1036 595
1819 1564 2184 2700 91 285 108 352 93 367 -11 11 -60 -10 -452 -195 -58 -27
-195 -91 -305 -142 -110 -51 -243 -113 -295 -138 -122 -58 -258 -121 -340
-159 -36 -17 -155 -72 -265 -123 -110 -51 -254 -119 -320 -150 -217 -103 -199
-99 -334 -75 -64 12 -170 32 -236 45 -66 13 -228 45 -360 70 -583 111 -548
102 -572 133 -13 15 -23 30 -23 34 0 4 -34 78 -75 164 -41 86 -75 158 -75 159
0 5 -149 316 -175 365 -13 25 -41 86 -63 135 -55 124 -89 198 -166 357 -36 76
-66 140 -66 143 0 3 -40 88 -89 188 -49 100 -98 205 -109 232 -18 45 -81 179
-207 440 -24 50 -59 124 -78 165 -19 41 -67 142 -106 223 -39 82 -71 150 -71
152 0 2 -38 82 -85 179 -47 97 -85 178 -85 180 0 2 -32 70 -71 152 -162 339
-229 489 -229 516 0 15 8 42 19 60 92 160 140 247 183 328 28 52 55 100 60
107 8 11 38 63 153 273 195 354 199 362 235 381 47 26 315 152 475 224 72 33
175 82 230 111 143 74 328 154 356 154 13 0 60 -6 104 -14 313 -57 375 -68
412 -76 89 -21 83 -33 83 171 0 106 4 188 10 200 12 21 146 88 583 291 48 23
86 46 84 52 -8 25 -385 220 -597 308 -377 157 -883 291 -1285 338 -297 35
-624 46 -865 29z"/>
<path d="M8443 9208 c6 -43 65 -254 144 -513 24 -82 53 -183 85 -304 16 -63
38 -138 48 -165 21 -58 69 -222 104 -358 18 -67 22 -97 14 -111 -5 -10 -53
-39 -106 -63 -54 -25 -133 -62 -177 -84 -101 -49 -275 -130 -280 -130 -4 0
-55 -24 -325 -152 -182 -87 -218 -100 -239 -88 -10 5 -35 49 -56 97 -21 48
-74 162 -117 253 -44 91 -89 185 -100 210 -41 98 -64 140 -75 144 -7 3 -36 -8
-65 -23 -29 -16 -64 -32 -78 -36 -14 -4 -82 -36 -152 -71 -70 -35 -207 -100
-305 -143 -98 -44 -261 -118 -363 -166 -102 -47 -209 -98 -239 -111 -30 -14
-50 -29 -45 -33 5 -5 87 -23 182 -41 96 -17 187 -36 204 -42 26 -9 39 -30 100
-157 38 -80 110 -229 160 -331 49 -101 98 -205 108 -230 17 -43 54 -123 155
-335 26 -55 88 -188 137 -295 50 -107 132 -280 183 -385 50 -104 100 -210 111
-235 117 -278 208 -386 371 -441 54 -18 81 -20 171 -17 117 5 119 5 347 113
66 32 171 81 233 111 108 51 112 53 103 77 -6 14 -42 91 -80 172 -39 81 -71
148 -71 150 0 2 -30 65 -66 141 -36 77 -68 153 -71 171 -5 31 -3 33 67 68 40
20 111 54 159 75 47 21 127 57 176 80 50 23 122 57 160 75 39 18 122 57 185
88 63 30 169 80 235 110 66 30 141 64 167 77 26 12 55 20 65 18 12 -2 43 -53
93 -154 87 -176 140 -288 140 -296 0 -4 31 -71 68 -150 37 -78 122 -257 187
-395 66 -139 125 -253 131 -253 21 0 24 28 30 254 12 415 -49 910 -161 1326
-119 437 -333 942 -540 1270 -199 316 -262 404 -436 611 -178 211 -630 649
-670 649 -7 0 -9 -13 -6 -32z"/>
<path d="M3080 5929 c-84 -14 -115 -26 -383 -153 -148 -70 -301 -142 -340
-160 -40 -19 -107 -50 -150 -70 -42 -20 -82 -36 -89 -36 -8 0 -8 -3 -3 -9 10
-10 117 -34 290 -66 50 -10 101 -24 114 -32 13 -8 40 -51 61 -96 21 -45 63
-135 94 -201 31 -65 56 -120 56 -122 0 -2 69 -149 173 -364 25 -52 70 -149
100 -215 50 -109 133 -284 237 -500 21 -44 81 -172 133 -285 53 -113 139 -297
192 -410 53 -113 115 -244 137 -292 23 -49 47 -88 54 -88 14 0 62 21 249 110
61 28 151 70 200 92 113 51 160 83 220 150 92 102 136 245 114 378 -11 72 -30
118 -157 385 -49 105 -101 215 -115 245 -14 30 -55 117 -91 193 -36 76 -66
140 -66 142 0 2 -50 107 -111 232 -61 125 -117 244 -124 263 -7 19 -34 80 -60
135 -26 55 -63 134 -82 175 -119 256 -199 405 -244 454 -94 103 -276 167 -409
145z"/>
<path d="M538 5004 c-8 -8 -7 -23 23 -219 50 -331 108 -572 210 -875 34 -100
50 -139 91 -222 4 -10 8 -23 8 -29 0 -14 41 -111 85 -204 19 -38 50 -105 69
-147 35 -76 137 -262 199 -363 320 -519 746 -988 1212 -1337 138 -103 321
-228 333 -228 26 0 19 27 -38 146 -33 70 -60 128 -60 129 0 2 -30 65 -66 141
-36 77 -79 166 -94 199 -15 33 -51 110 -80 170 -29 61 -96 205 -150 320 -54
116 -125 268 -159 339 -34 70 -61 130 -61 131 0 2 -30 66 -66 142 -36 76 -79
166 -94 199 -16 34 -33 65 -39 68 -6 4 -11 14 -11 23 0 8 -43 106 -96 217
-100 211 -129 272 -162 346 -11 25 -66 142 -122 260 -56 118 -130 276 -165
350 -99 216 -146 308 -166 326 -13 12 -100 33 -262 65 -290 57 -330 63 -339
53z"/>
</g>
</svg>
